<svg xmlns="http://www.w3.org/2000/svg" width="512" height="512" viewBox="0 0 512 512">
  <defs>
    <linearGradient id="bg" x1="64" x2="448" y1="48" y2="464" gradientUnits="userSpaceOnUse">
      <stop stop-color="#14b8a6"/>
      <stop offset="0.55" stop-color="#0f766e"/>
      <stop offset="1" stop-color="#0f172a"/>
    </linearGradient>
    <linearGradient id="accent" x1="140" x2="378" y1="138" y2="374" gradientUnits="userSpaceOnUse">
      <stop stop-color="#5eead4"/>
      <stop offset="1" stop-color="#93c5fd"/>
    </linearGradient>
  </defs>
  <rect width="512" height="512" fill="#020617" rx="128"/>
  <rect width="512" height="512" fill="url(#bg)" rx="128"/>
  <circle cx="392" cy="118" r="58" fill="#fff" fill-opacity=".08"/>
  <circle cx="142" cy="404" r="74" fill="#fff" fill-opacity=".06"/>
  <path fill="url(#accent)" d="M292.507 112c33.642 0 60.913 27.271 60.913 60.913 0 23.763-13.642 44.332-33.513 54.384l-30.828 15.602c-14.719 7.45-24.028 22.522-24.028 38.994V320H296.4c43.96 0 79.6 35.64 79.6 79.6V408H297.2v-8.4c0-22.172-17.975-40.146-40.146-40.146H216.96c-23.138 0-41.894-18.756-41.894-41.894v-48.339c0-31.283 17.664-59.873 45.637-73.873l39.476-19.762c8.367-4.188 13.668-12.744 13.668-22.066 0-13.589-11.016-24.605-24.605-24.605h-77.746V112z"/>
  <path fill="#e2e8f0" d="M144 282.205c0-24.356 19.744-44.1 44.1-44.1h31.294v43.648H188.1c-.243 0-.44.197-.44.44v35.283c0 .243.197.44.44.44h63.222V416H188.1c-24.356 0-44.1-19.744-44.1-44.1z" opacity=".95"/>
</svg>
