<svg xmlns="http://www.w3.org/2000/svg" width="192" height="192" viewBox="0 0 512 512" fill="none">
  <defs>
    <linearGradient id="bg" x1="86" y1="52" x2="432" y2="460" gradientUnits="userSpaceOnUse">
      <stop stop-color="#11233B" />
      <stop offset="1" stop-color="#050C17" />
    </linearGradient>
    <linearGradient id="tile" x1="164" y1="134" x2="348" y2="338" gradientUnits="userSpaceOnUse">
      <stop stop-color="#34D399" />
      <stop offset=".55" stop-color="#18C3A6" />
      <stop offset="1" stop-color="#0F9B93" />
    </linearGradient>
  </defs>

  <rect width="512" height="512" fill="url(#bg)" />
  <circle cx="176" cy="170" r="118" fill="#44D3B4" fill-opacity=".10" />
  <circle cx="394" cy="108" r="28" fill="#F8FAFC" fill-opacity=".08" />
  <rect x="160" y="154" width="192" height="192" rx="56" fill="#071B20" fill-opacity=".42" />
  <rect x="160" y="142" width="192" height="192" rx="56" fill="url(#tile)" />
  <path fill="#fff" fill-opacity=".12" d="M160 194c26 25 58 38 94 38 38 0 69-12 98-38v-4c0-26.51-21.49-48-48-48h-96c-26.51 0-48 21.49-48 48z" />
  <rect x="167" y="149" width="178" height="178" rx="49" stroke="#ECFDF5" stroke-opacity=".16" stroke-width="4" />

  <path fill="#F8FAFC" d="M256 184l18 40 40 18-40 18-18 40-18-40-40-18 40-18 18-40Z" />
  <path fill="#F8FAFC" d="M312 170l8 18 18 8-18 8-8 18-8-18-18-8 18-8 8-18Z" />
  <path d="M198 306c18-24 42-36 72-36 32 0 58 12 78 36" stroke="#F8FAFC" stroke-linecap="round" stroke-width="18" />
  <circle cx="204" cy="314" r="20" stroke="#F8FAFC" stroke-width="16" />
  <circle cx="306" cy="314" r="20" stroke="#F8FAFC" stroke-width="16" />
  <path d="M236 314h38" stroke="#F8FAFC" stroke-linecap="round" stroke-width="14" />
</svg>
